HIERARCHY
ROOT Hips
{
	OFFSET 0.000000 0.000000 0.000000
	CHANNELS 6 Xposition Yposition Zposition Xrotation Yrotation Zrotation
	JOINT LeftUpLeg_virtual
	{
		OFFSET 0.000000 0.000000 0.000000
		CHANNELS 3 Xrotation Yrotation Zrotation
		JOINT LeftUpLeg
		{
			OFFSET 10.205400 -3.823500 0.155100
			CHANNELS 3 Xrotation Yrotation Zrotation
			JOINT LeftLeg
			{
				OFFSET 0.708757 -12.982077 0.567790
				CHANNELS 3 Xrotation Yrotation Zrotation
				JOINT LeftFoot
				{
					OFFSET -0.708756 -10.717838 -2.184338
					CHANNELS 3 Xrotation Yrotation Zrotation
					JOINT LeftToeBase
					{
						OFFSET 0.108149 -7.191104 7.560241
						CHANNELS 3 Xrotation Yrotation Zrotation
						JOINT LeftToe_End
						{
							OFFSET 0.070230 0.081724 4.490308
							CHANNELS 3 Xrotation Yrotation Zrotation
							End Site
							{
								OFFSET 0 0 0
							}
						}
					}
				}
			}
		}
	}
	JOINT RightUpLeg_virtual
	{
		OFFSET 0.000000 0.000000 0.000000
		CHANNELS 3 Xrotation Yrotation Zrotation
		JOINT RightUpLeg
		{
			OFFSET -10.205400 -3.823500 0.005500
			CHANNELS 3 Xrotation Yrotation Zrotation
			JOINT RightLeg
			{
				OFFSET -0.708756 -12.982134 0.610632
				CHANNELS 3 Xrotation Yrotation Zrotation
				JOINT RightFoot
				{
					OFFSET 0.708754 -10.717769 -1.945823
					CHANNELS 3 Xrotation Yrotation Zrotation
					JOINT RightToeBase
					{
						OFFSET -0.108140 -7.191069 7.372968
						CHANNELS 3 Xrotation Yrotation Zrotation
						JOINT RightToe_End
						{
							OFFSET -0.070227 0.081735 4.479403
							CHANNELS 3 Xrotation Yrotation Zrotation
							End Site
							{
								OFFSET 0 0 0
							}
						}
					}
				}
			}
		}
	}
	JOINT Spine_virtual
	{
		OFFSET 0.000000 0.000000 0.000000
		CHANNELS 3 Xrotation Yrotation Zrotation
		JOINT Spine
		{
			OFFSET 0.000000 6.876099 0.125700
			CHANNELS 3 Xrotation Yrotation Zrotation
			JOINT Spine1
			{
				OFFSET 0.000000 5.730043 0.104720
				CHANNELS 3 Xrotation Yrotation Zrotation
				JOINT Spine1_split
				{
					OFFSET 0.000000 5.730043 0.104720
					CHANNELS 3 Xrotation Yrotation Zrotation
					JOINT Spine2
					{
						OFFSET 0.000000 5.730043 0.104720
						CHANNELS 3 Xrotation Yrotation Zrotation
						JOINT Neck_virtual
						{
							OFFSET 0.000000 0.000000 0.000000
							CHANNELS 3 Xrotation Yrotation Zrotation
							JOINT Neck
							{
								OFFSET 0.000000 10.314075 0.188496
								CHANNELS 3 Xrotation Yrotation Zrotation
								JOINT Head
								{
									OFFSET 0.000000 7.643700 -2.377400
									CHANNELS 3 Xrotation Yrotation Zrotation
									JOINT HeadTop_End
									{
										OFFSET 0.000000 43.788605 -13.619600
										CHANNELS 3 Xrotation Yrotation Zrotation
										End Site
										{
											OFFSET 0 0 0
										}
									}
								}
							}
						}
						JOINT LeftShoulder_virtual
						{
							OFFSET 0.000000 0.000000 0.000000
							CHANNELS 3 Xrotation Yrotation Zrotation
							JOINT LeftShoulder
							{
								OFFSET 2.196100 4.412489 0.087492
								CHANNELS 3 Xrotation Yrotation Zrotation
								JOINT LeftShoulder_split
								{
									OFFSET 2.196100 4.412489 0.087492
									CHANNELS 3 Xrotation Yrotation Zrotation
									JOINT LeftArm
									{
										OFFSET 8.771219 -2.981674 -0.026999
										CHANNELS 3 Xrotation Yrotation Zrotation
										JOINT LeftForeArm
										{
											OFFSET 8.512804 0.000000 -0.000000
											CHANNELS 3 Xrotation Yrotation Zrotation
											JOINT LeftHand
											{
												OFFSET 18.484802 0.000000 -0.000000
												CHANNELS 3 Xrotation Yrotation Zrotation
												End Site
												{
													OFFSET 0 0 0
												}
											}
										}
									}
								}
							}
						}
						JOINT RightShoulder_virtual
						{
							OFFSET 0.000000 0.000000 0.000000
							CHANNELS 3 Xrotation Yrotation Zrotation
							JOINT RightShoulder
							{
								OFFSET -2.196100 4.412496 0.070690
								CHANNELS 3 Xrotation Yrotation Zrotation
								JOINT RightShoulder_split
								{
									OFFSET -2.196100 4.412496 0.070690
									CHANNELS 3 Xrotation Yrotation Zrotation
									JOINT RightArm
									{
										OFFSET -8.771282 -2.981682 -0.094208
										CHANNELS 3 Xrotation Yrotation Zrotation
										JOINT RightForeArm
										{
											OFFSET -8.494598 0.000000 0.000000
											CHANNELS 3 Xrotation Yrotation Zrotation
											JOINT RightHand
											{
												OFFSET -18.483803 0.000000 0.000001
												CHANNELS 3 Xrotation Yrotation Zrotation
												End Site
												{
													OFFSET 0 0 0
												}
											}
										}
									}
								}
							}
						}
					}
				}
			}
		}
	}
}
MOTION
Frames: 4
Frame Time: 0.03333333
0.249727 26.665668 -2.879223 0.000000 0.000000 0.000000 -10.347346 4.293582 0.361522 -37.139031 -7.787310 19.339214 79.192779 -4.887716 -0.020747 -30.497133 -1.034302 -15.711481 -0.000119 -0.000002 -0.000001 0.000000 0.000000 0.000000 -10.347346 4.293582 0.361522 -25.534425 -3.083866 -25.250383 80.697176 6.128464 0.033425 -42.138258 -6.433189 14.765809 0.000012 -0.000000 -0.000001 0.000000 0.000000 0.000000 -10.347346 4.293582 0.361522 24.172962 0.059815 0.921104 14.300674 -0.000461 0.896334 0.000000 0.000000 0.000000 0.000000 0.000000 0.000000 14.301741 -0.006506 0.892862 18.888403 -1.028623 -1.227771 -9.502130 -3.128163 -0.026382 0.000000 0.000000 0.000000 14.301741 -0.006506 0.892862 1.369051 -20.607353 -8.030714 0.000000 0.000000 0.000000 -26.870584 1.825435 -58.551995 -139.815229 -76.593659 -137.273565 0.000000 0.000000 0.000000 14.301741 -0.006506 0.892862 4.241968 6.025678 23.458838 0.000000 0.000000 0.000000 -22.328981 30.789922 40.151359 -101.532394 65.933804 95.052478 0.000000 0.000000 0.000000 
0.225452 26.823959 -2.771194 0.000000 0.000000 0.000000 -11.643674 4.261594 0.344405 -34.629551 -7.813638 19.390685 78.292286 -4.850359 -0.016046 -30.755980 -0.661183 -15.849939 -0.000120 0.000000 -0.000002 0.000000 0.000000 0.000000 -11.643674 4.261594 0.344405 -23.163297 -3.560652 -24.861477 79.423516 5.924712 0.026320 -42.025358 -6.460238 14.775665 0.000007 -0.000002 -0.000001 0.000000 0.000000 0.000000 -11.643674 4.261594 0.344405 23.956414 0.035839 0.857709 13.992116 -0.012110 0.874928 0.000000 0.000000 0.000000 0.000000 0.000000 0.000000 13.993091 -0.019271 0.870006 17.101286 -1.158556 -1.120068 -9.419545 -3.200688 0.179589 0.000000 0.000000 0.000000 13.993091 -0.019271 0.870006 1.274341 -20.464777 -8.784597 0.000000 0.000000 0.000000 -24.361970 0.125586 -58.409531 -134.037312 -77.572453 -130.766431 0.000000 0.000000 0.000000 13.993091 -0.019271 0.870006 4.281750 6.062542 24.486865 0.000000 0.000000 0.000000 -20.183597 30.543998 38.966912 -101.168557 66.637429 94.218648 0.000000 0.000000 0.000000 
0.191344 27.036915 -2.643560 0.000000 0.000000 0.000000 -12.400674 4.314880 0.336754 -32.618549 -7.796625 19.359246 76.992351 -4.717151 -0.008576 -30.684591 -0.388480 -16.009412 -0.000125 0.000001 -0.000002 0.000000 0.000000 0.000000 -12.400674 4.314880 0.336754 -21.237319 -4.133984 -24.450745 77.863692 5.730017 0.021864 -41.738279 -6.543499 14.716541 0.000013 -0.000000 -0.000002 0.000000 0.000000 0.000000 -12.400674 4.314880 0.336754 23.645405 0.003346 0.828961 13.485195 -0.074092 0.867699 0.000000 0.000000 0.000000 0.000000 0.000000 0.000000 13.486095 -0.083624 0.864978 15.039848 -1.249822 -1.288810 -9.417321 -3.318419 0.602191 0.000000 0.000000 0.000000 13.486095 -0.083624 0.864978 1.157222 -20.150274 -9.778060 0.000000 0.000000 0.000000 -22.947108 -1.113753 -58.002916 -128.515979 -78.463820 -124.614739 0.000000 0.000000 0.000000 13.486095 -0.083624 0.864978 4.416309 5.793507 25.390690 0.000000 0.000000 0.000000 -17.739849 29.670185 39.116732 -104.281593 68.988592 96.226000 0.000000 0.000000 0.000000 
0.146236 27.254944 -2.493242 0.000000 0.000000 0.000000 -12.536878 4.355431 0.381489 -31.285634 -7.625200 19.314906 75.554002 -4.607232 -0.002842 -30.450325 -0.207791 -16.135103 -0.000123 0.000000 -0.000001 0.000000 0.000000 0.000000 -12.536878 4.355431 0.381489 -20.040070 -4.603526 -24.109970 76.434830 5.574739 0.019172 -41.469825 -6.652647 14.611358 0.000010 -0.000000 -0.000001 0.000000 0.000000 0.000000 -12.536878 4.355431 0.381489 23.210171 -0.075759 0.807613 12.703021 -0.226610 0.772104 0.000000 0.000000 0.000000 0.000000 0.000000 0.000000 12.703652 -0.233557 0.766655 12.861716 -1.200976 -1.613199 -9.877449 -3.291001 0.800853 0.000000 0.000000 0.000000 12.703652 -0.233557 0.766655 1.104415 -19.890675 -10.278932 0.000000 0.000000 0.000000 -21.196860 -2.412173 -57.702019 -130.960258 -81.096202 -125.841304 0.000000 0.000000 0.000000 12.703652 -0.233557 0.766655 4.503892 5.478726 25.672279 0.000000 0.000000 0.000000 -14.594907 29.842138 39.506162 -105.759025 71.476850 96.313310 0.000000 0.000000 0.000000 
